<svg xmlns="http://www.w3.org/2000/svg" viewBox="0 0 1440 320"><path fill="#FF6700" fill-opacity="1" d="M0,256L26.7,250.7C53.3,245,107,235,160,229.3C213.3,224,267,224,320,213.3C373.3,203,427,181,480,170.7C533.3,160,587,160,640,133.3C693.3,107,747,53,800,48C853.3,43,907,85,960,96C1013.3,107,1067,85,1120,85.3C1173.3,85,1227,107,1280,96C1333.3,85,1387,43,1413,21.3L1440,0L1440,320L1413.3,320C1386.7,320,1333,320,1280,320C1226.7,320,1173,320,1120,320C1066.7,320,1013,320,960,320C906.7,320,853,320,800,320C746.7,320,693,320,640,320C586.7,320,533,320,480,320C426.7,320,373,320,320,320C266.7,320,213,320,160,320C106.7,320,53,320,27,320L0,320Z"></path></svg>